<svg width="124" height="124" viewBox="0 0 124 124" fill="none" xmlns="http://www.w3.org/2000/svg">
<g clip-path="url(#clip0_1_121)">
<path fill-rule="evenodd" clip-rule="evenodd" d="M73.3233 19.7407C50.8354 13.7151 27.68 27.0839 21.6544 49.5718C15.6288 72.0598 28.9975 95.2151 51.4855 101.241C53.0853 101.669 54.6887 101.976 56.2917 102.212L56.3271 102.273L56.3976 102.227C77.251 105.249 97.5671 92.2616 103.154 71.4097C108.741 50.5608 97.637 29.1673 78.0741 21.3534C78.0341 21.2974 78.0017 21.237 77.9587 21.1801L77.9636 21.162L77.8431 21.2495C76.3769 20.6722 74.8748 20.1565 73.3233 19.7407ZM70.985 22.4303L66.9612 37.4474L53.8608 33.9372C58.2003 28.8139 63.3575 24.7444 68.9532 21.9959C69.6305 22.1127 70.3076 22.2779 70.985 22.4303V22.4303ZM74.0036 23.2391C74.6686 23.4497 75.3423 23.6399 75.9864 23.8804C79.4673 29.061 81.9102 35.1572 83.1103 41.7746L69.9797 38.2563L74.0036 23.2391ZM63.3996 21.4719C58.4785 24.5726 54.1167 28.4823 50.4982 33.0362L38.3306 29.7759C45.4674 24.1755 54.3338 21.2392 63.4026 21.4727L63.3996 21.4719ZM81.0459 26.2002C89.0192 30.5315 95.2319 37.5084 98.6134 45.9286L86.4608 42.6724C85.5985 36.916 83.7687 31.347 81.0489 26.201L81.0459 26.2002ZM35.4722 32.2452L48.482 35.7312C44.8041 40.9725 42.0104 46.7814 40.2122 52.9267L25.1528 48.8916C27.1115 42.5517 30.6634 36.82 35.4692 32.2444L35.4722 32.2452ZM51.7782 36.6144L66.1524 40.466L61.2995 58.5771L43.2307 53.7355C45.0593 47.5736 47.9521 41.7792 51.7782 36.6144V36.6144ZM69.1709 41.2748L83.5693 45.1328C84.3008 51.5186 83.9088 57.9832 82.4111 64.2339L64.3181 59.3859L69.1709 41.2748ZM86.8594 46.0144L99.8511 49.4955C101.725 55.861 101.935 62.6007 100.462 69.0706L85.4296 65.0427C86.9422 58.8203 87.4242 52.392 86.8564 46.0136L86.8594 46.0144ZM24.341 51.9093L39.4003 55.9444C37.8848 62.1655 37.3997 68.593 37.9645 74.9711L24.9516 71.4843C23.0794 65.1188 22.8702 58.3795 24.344 51.9101L24.341 51.9093ZM42.4189 56.7533L60.4907 61.5956L55.6379 79.7067L41.2637 75.8552C40.5326 69.4693 40.9246 63.0048 42.4219 56.7541L42.4189 56.7533ZM63.5062 62.4036L81.5238 67.2314C79.6808 72.8295 76.4551 78.6621 72.0888 84.1147L58.6564 80.5155L63.5093 62.4044L63.5062 62.4036ZM84.5453 68.041L99.653 72.0891C97.6946 78.4287 94.1438 84.1604 89.3396 88.7371L75.3669 84.9931C79.5534 79.5473 82.7028 73.746 84.5483 68.0418L84.5453 68.041ZM26.1984 75.0537L38.3721 78.3156C39.2289 84.0686 41.0515 89.6355 43.7629 94.7813C35.7878 90.451 29.5738 83.4735 26.1924 75.052L26.1984 75.0537ZM41.7317 79.2158L54.8321 82.726L50.8083 97.7432C50.1493 97.5342 49.4794 97.3418 48.8375 97.1051C45.3596 91.9253 42.9296 85.8293 41.7317 79.2158V79.2158ZM57.8506 83.5348L69.813 86.7402C65.6702 91.4306 60.9097 95.5369 55.6622 98.9467C55.0499 98.8409 54.437 98.6896 53.8268 98.552L57.8506 83.5348ZM73.2088 87.6501L86.4843 91.2072C79.0751 97.0368 69.8043 99.9835 60.389 99.5015C65.1209 96.0795 69.4232 92.0998 73.2028 87.6484L73.2088 87.6501Z" fill="black"/>
</g>
<defs>
<clipPath id="clip0_1_121">
<rect width="100" height="100" fill="white" transform="translate(26.6447 0.762756) rotate(15)"/>
</clipPath>
</defs>
</svg>
