<svg width="22" height="24" viewBox="0 0 22 24" fill="none" xmlns="http://www.w3.org/2000/svg">
<path d="M17.5214 7.81197C19.9656 9.18075 21.1877 9.86513 21.5943 10.7654C21.9487 11.5503 21.9487 12.4497 21.5943 13.2346C21.1877 14.1349 19.9656 14.8193 17.5214 16.188L7.1453 21.9986C4.79578 23.3144 3.62101 23.9722 2.65905 23.8622C1.81977 23.7662 1.05987 23.3208 0.566032 22.6354C1.87029e-07 21.8499 2.47706e-07 20.5034 3.69061e-07 17.8106L8.9278e-07 6.18939C1.01414e-06 3.49655 1.07481e-06 2.15013 0.566033 1.36458C1.05987 0.679213 1.81977 0.233816 2.65905 0.137809C3.62102 0.0277677 4.79578 0.685634 7.1453 2.00137L17.5214 7.81197Z" fill="black"/>
</svg>
